<svg width="8" height="4" viewBox="0 0 8 4" fill="none" xmlns="http://www.w3.org/2000/svg">
<path d="M7.99996 0.663326C8.00025 0.748686 7.98141 0.833027 7.94483 0.910151C7.90824 0.987274 7.85484 1.05522 7.78855 1.109L4.3603 3.86874C4.25807 3.95278 4.12983 3.99872 3.99748 3.99872C3.86514 3.99872 3.7369 3.95278 3.63466 3.86874L0.20641 1.01186C0.0897262 0.91488 0.0163477 0.775515 0.00241777 0.624429C-0.0115122 0.473342 0.0351474 0.32291 0.132132 0.206226C0.229116 0.0895417 0.368481 0.0161636 0.519567 0.00223351C0.670654 -0.0116963 0.821086 0.0349629 0.93777 0.131947L4.00034 2.68599L7.06291 0.217654C7.14678 0.147784 7.2489 0.103401 7.35721 0.0897572C7.46551 0.0761132 7.57546 0.0937784 7.67403 0.140663C7.77261 0.187547 7.8557 0.261689 7.91346 0.354315C7.97122 0.44694 8.00124 0.554174 7.99996 0.663326Z" fill="white"/>
</svg>
