<svg width="16" height="16" viewBox="0 0 16 16" fill="none" xmlns="http://www.w3.org/2000/svg">
<path fill-rule="evenodd" clip-rule="evenodd" d="M2.49033 0.666656H13.5094C14.5124 0.666656 15.3331 1.48742 15.3331 2.49047V9.44825L12.8869 7.17291C12.8825 7.16841 12.878 7.16392 12.8731 7.15973C12.577 6.89016 12.2137 6.74343 11.8508 6.74343C11.4909 6.74343 11.1386 6.88513 10.856 7.19036L7.12588 11.2182C6.96557 11.3913 6.87167 11.4754 6.8195 11.4805C6.77432 11.4849 6.67257 11.4239 6.50307 11.3053L4.28074 9.54137C4.04661 9.33495 3.75182 9.23791 3.45609 9.23791C3.15849 9.23791 2.85438 9.33882 2.61179 9.52684L0.666687 11.0362V2.4907C0.666687 1.48766 1.48745 0.66689 2.49028 0.66689L2.49033 0.666656ZM15.3332 10.7806L12.2225 7.88705C12.2205 7.88527 12.2185 7.8836 12.2164 7.88161C12.1022 7.77788 11.9722 7.7211 11.8509 7.7211C11.7516 7.7211 11.6524 7.7623 11.5703 7.85108L7.8404 11.8786C7.5084 12.2372 7.23923 12.4186 6.91518 12.4504C6.58494 12.4828 6.30051 12.3549 5.93117 12.0959C5.92332 12.0904 5.91558 12.0846 5.90826 12.0787L3.67214 10.3037C3.66033 10.2947 3.64893 10.2854 3.63753 10.2753C3.59235 10.2347 3.527 10.2156 3.45662 10.2156C3.36711 10.2156 3.2776 10.2444 3.20806 10.2982L0.666893 12.2697V13.5095C0.666893 14.5122 1.48766 15.333 2.4906 15.333H13.5096C14.5127 15.333 15.3334 14.5122 15.3334 13.5095L15.3332 10.7806ZM5.56405 3.08827C4.75614 3.08827 4.10121 3.74298 4.10121 4.551C4.10121 5.35892 4.75614 6.01385 5.56405 6.01385C6.37197 6.01385 7.0269 5.35892 7.0269 4.551C7.027 3.74287 6.37197 3.08827 5.56405 3.08827Z" fill="#87888C"/>
</svg>
