<svg width="20" height="15" viewBox="0 0 20 15" fill="none" xmlns="http://www.w3.org/2000/svg">
<path d="M6.82617 13.4323C6.94353 13.573 7.11459 13.6578 7.29756 13.666C7.48053 13.6743 7.65865 13.6053 7.78818 13.4757C7.91759 13.3462 7.98679 13.1682 7.97846 12.9852C7.97013 12.8021 7.88531 12.6311 7.74462 12.5138L3.05852 7.82249L18.5473 7.82249C18.7724 7.81045 18.9755 7.68347 19.0847 7.48627C19.194 7.2892 19.194 7.04971 19.0847 6.85253C18.9755 6.65534 18.7724 6.52836 18.5473 6.51645L3.05852 6.51645L7.75183 1.83035C7.86997 1.70658 7.93583 1.54218 7.93583 1.37112C7.93583 1.20007 7.86997 1.03556 7.75183 0.911897C7.63011 0.789784 7.46494 0.721234 7.2926 0.721234C7.12027 0.721234 6.95497 0.789785 6.83338 0.911897L1.02874 6.71654L1.02874 6.71641C0.903936 6.8366 0.833333 7.00241 0.833333 7.17564C0.833333 7.349 0.903936 7.51481 1.02874 7.63487L6.82617 13.4323Z" fill="white" stroke="white"/>
</svg>
