<svg width="15" height="16" viewBox="0 0 15 16" fill="none" xmlns="http://www.w3.org/2000/svg">
<path d="M6.85183 0.666664C7.30185 0.666664 7.66665 1.03147 7.66665 1.48148C7.66665 1.89934 7.35211 2.24374 6.94686 2.29081L6.85183 2.29629H2.77776C2.35989 2.29629 2.01549 2.61085 1.96842 3.01608L1.96294 3.11111V12.8889C1.96294 13.3068 2.2775 13.6512 2.68273 13.6982L2.77776 13.7037H6.44442C6.89445 13.7037 7.25924 14.0685 7.25924 14.5185C7.25924 14.9364 6.9447 15.2808 6.53945 15.3278L6.44442 15.3333H2.77776C1.47595 15.3333 0.411812 14.3157 0.337463 13.0325L0.333313 12.8889V3.11111C0.333313 1.8093 1.35095 0.745163 2.63413 0.670814L2.77776 0.666664H6.85183ZM11.502 5.1192L13.8067 7.42384C14.1249 7.74203 14.1249 8.25797 13.8067 8.57615L11.502 10.8808C11.1838 11.199 10.6679 11.199 10.3497 10.8808C10.0315 10.5626 10.0315 10.0466 10.3497 9.72846L11.2634 8.81481H6.85183C6.40181 8.81481 6.03702 8.45002 6.03702 8C6.03702 7.54998 6.40181 7.18518 6.85183 7.18518H11.2634L10.3497 6.27151C10.0315 5.95331 10.0315 5.4374 10.3497 5.1192C10.6679 4.80099 11.1838 4.80099 11.502 5.1192Z" fill="#87888C"/>
</svg>
