<svg width="24" height="24" viewBox="0 0 24 24" fill="none" xmlns="http://www.w3.org/2000/svg">
<path opacity="0.87" fill-rule="evenodd" clip-rule="evenodd" d="M10.3421 17.9211C10.3421 17.049 11.049 16.3421 11.9211 16.3421C12.7931 16.3421 13.5 17.049 13.5 17.9211C13.5 18.7931 12.7931 19.5 11.9211 19.5C11.049 19.5 10.3421 18.7931 10.3421 17.9211ZM10.3421 12.0001C10.3421 11.1281 11.049 10.4211 11.9211 10.4211C12.7931 10.4211 13.5 11.1281 13.5 12.0001C13.5 12.8721 12.7931 13.579 11.9211 13.579C11.049 13.579 10.3421 12.8721 10.3421 12.0001ZM11.9211 4.49984C11.049 4.49984 10.3421 5.20676 10.3421 6.07879C10.3421 6.95082 11.049 7.65774 11.9211 7.65774C12.7931 7.65774 13.5 6.95082 13.5 6.07879C13.5 5.20676 12.7931 4.49984 11.9211 4.49984Z" fill="white"/>
</svg>
