<svg width="16" height="12" viewBox="0 0 16 12" fill="none" xmlns="http://www.w3.org/2000/svg">
<path fill-rule="evenodd" clip-rule="evenodd" d="M15.3334 6.59718V2.27672C15.3334 1.91741 15.0416 1.62546 14.6818 1.62546H7.22452C7.04511 1.62546 6.81837 1.50472 6.71757 1.35584L5.98196 0.268794C5.88092 0.119506 5.65451 0 5.47501 0H1.31937C0.957408 0 0.666687 0.291039 0.666687 0.650038V6.59707V2.46686H15.3332L15.3334 6.59718ZM0.666814 3.76772C0.666814 3.40849 0.959759 3.11719 1.31834 3.11719H14.6818C15.0416 3.11719 15.3333 3.4098 15.3333 3.76772V10.7568C15.3333 11.1161 15.0403 11.4074 14.6818 11.4074H1.31834C0.958531 11.4074 0.666814 11.1148 0.666814 10.7568V3.76772Z" fill="#87888C"/>
</svg>
