<svg width="16" height="15" viewBox="0 0 16 15" fill="none" xmlns="http://www.w3.org/2000/svg">
<path fill-rule="evenodd" clip-rule="evenodd" d="M9.4925 0.547617C9.76303 0.352895 10.1446 0.261837 10.5198 0.399131C11.3245 0.693535 12.0626 1.12457 12.7063 1.66369C13.0121 1.9199 13.124 2.2953 13.0908 2.6267C13.0355 3.17879 13.1329 3.71184 13.3982 4.1713C13.6341 4.5799 13.9868 4.90265 14.4177 5.12955L14.5829 5.21013C14.887 5.34723 15.1568 5.6326 15.2252 6.02671C15.2963 6.43694 15.3334 6.85838 15.3334 7.2879C15.3334 7.71741 15.2963 8.13893 15.2252 8.54916C15.1637 8.90384 14.939 9.17044 14.6729 9.32018L14.5829 9.36572C14.0768 9.59386 13.6636 9.94491 13.3982 10.4046C13.1329 10.864 13.0355 11.397 13.0908 11.949C13.124 12.2804 13.0121 12.6558 12.7063 12.9121C12.0626 13.4511 11.3245 13.8822 10.5199 14.1765C10.1447 14.3139 9.7631 14.2228 9.49257 14.028C9.04179 13.7036 8.53103 13.5212 8.00002 13.5212C7.46901 13.5212 6.95825 13.7036 6.5075 14.028C6.23698 14.2228 5.8554 14.3139 5.48013 14.1765C4.67549 13.8822 3.93737 13.4511 3.29371 12.912C2.98786 12.6558 2.87599 12.2804 2.90918 11.949C2.96445 11.397 2.86702 10.864 2.60176 10.4046C2.36586 9.99598 2.0132 9.67321 1.58232 9.4463L1.41714 9.36572C1.11299 9.22859 0.843237 8.94325 0.774868 8.54916C0.703698 8.13893 0.666687 7.71741 0.666687 7.2879C0.666687 6.85831 0.703698 6.43686 0.774861 6.02656C0.836393 5.6719 1.06105 5.4053 1.32709 5.25557L1.41714 5.21003C1.92321 4.98189 2.33638 4.63088 2.60176 4.17121C2.86702 3.71177 2.96446 3.17874 2.90918 2.62669C2.87599 2.29531 2.98785 1.91993 3.29371 1.66374C3.93738 1.12459 4.67553 0.693543 5.48019 0.399131C5.85545 0.261829 6.23701 0.352895 6.50753 0.547617C6.95825 0.872058 7.46901 1.05451 8.00002 1.05451C8.53103 1.05451 9.04179 0.872058 9.4925 0.547617ZM8.00002 4.35449C9.62003 4.35449 10.9334 5.66779 10.9334 7.28782C10.9334 8.90783 9.62003 10.2212 8.00002 10.2212C6.37998 10.2212 5.06669 8.90783 5.06669 7.28782C5.06669 5.66779 6.37998 4.35449 8.00002 4.35449ZM8.00002 5.82116C7.18998 5.82116 6.53335 6.47778 6.53335 7.28782C6.53335 8.09786 7.18998 8.75449 8.00002 8.75449C8.81006 8.75449 9.46669 8.09786 9.46669 7.28782C9.46669 6.47778 8.81006 5.82116 8.00002 5.82116Z" fill="#87888C"/>
</svg>
