<svg width="12" height="12" viewBox="0 0 12 12" fill="none" xmlns="http://www.w3.org/2000/svg">
<path d="M9.96522 8.2017C9.96522 8.59274 9.91139 8.94693 9.80371 9.2643C9.69603 9.58166 9.54585 9.86218 9.35317 10.1059C9.16615 10.3496 8.93946 10.5592 8.67311 10.7349C8.41242 10.9106 8.12339 11.0551 7.80603 11.1685C7.48867 11.2818 7.14863 11.3668 6.78594 11.4235C6.4289 11.4745 6.02937 11.5 5.58733 11.5H2.66306C2.47604 11.5 2.31736 11.4462 2.18702 11.3385C2.06234 11.2251 2 11.0438 2 10.7944V1.20556C2 0.956208 2.06234 0.777692 2.18702 0.670015C2.31736 0.556672 2.47604 0.5 2.66306 0.5H5.42581C6.10021 0.5 6.66976 0.556672 7.13447 0.670015C7.60484 0.783359 7.99871 0.956208 8.31607 1.18856C8.6391 1.41525 8.88563 1.70428 9.05564 2.05564C9.22566 2.40701 9.31067 2.82071 9.31067 3.29675C9.31067 3.56311 9.27666 3.8153 9.20866 4.05332C9.14065 4.28568 9.04147 4.4982 8.91113 4.69088C8.78078 4.88356 8.61927 5.05358 8.42658 5.20093C8.23957 5.34827 8.02421 5.46728 7.78053 5.55796C8.09222 5.61463 8.37841 5.71381 8.6391 5.85549C8.90546 5.99717 9.13498 6.18135 9.32767 6.40804C9.52602 6.62906 9.68187 6.88975 9.79521 7.19011C9.90855 7.49047 9.96522 7.82767 9.96522 8.2017ZM7.07496 3.56878C7.07496 3.34776 7.04096 3.14941 6.97295 2.97372C6.90495 2.79804 6.80294 2.65353 6.66692 2.54019C6.53091 2.42117 6.35806 2.3305 6.14838 2.26816C5.94436 2.20582 5.6695 2.17465 5.3238 2.17465H4.1932V5.03091H5.44281C5.76584 5.03091 6.0237 4.99408 6.21638 4.9204C6.40907 4.84106 6.56775 4.73622 6.69243 4.60587C6.82277 4.46986 6.91911 4.31401 6.98145 4.13833C7.04379 3.95698 7.07496 3.76713 7.07496 3.56878ZM7.64451 8.27821C7.64451 8.02318 7.60201 7.7965 7.517 7.59815C7.43199 7.39413 7.30732 7.22411 7.14297 7.0881C6.97862 6.95209 6.76893 6.84724 6.51391 6.77357C6.25889 6.6999 5.92736 6.66306 5.51932 6.66306H4.1932V9.79134H5.80835C6.12004 9.79134 6.38073 9.76017 6.59042 9.69784C6.80577 9.62983 6.98995 9.53349 7.14297 9.40881C7.30165 9.27846 7.42349 9.11978 7.5085 8.93277C7.59918 8.74008 7.64451 8.5219 7.64451 8.27821Z" fill="white"/>
</svg>
