<svg width="12" height="12" viewBox="0 0 12 12" fill="none" xmlns="http://www.w3.org/2000/svg">
<path d="M9.31469 5.79188C9.31469 6.30511 9.23921 6.76442 9.08826 7.16983C8.93731 7.57524 8.7152 7.91811 8.42193 8.19845C8.12865 8.47879 7.76637 8.69227 7.33509 8.83891C6.9038 8.98555 6.40782 9.05886 5.84715 9.05886C5.32098 9.05886 4.84873 8.99417 4.43038 8.86479C4.01203 8.73109 3.65838 8.53054 3.36942 8.26314C3.08045 7.99575 2.85834 7.66366 2.70308 7.26687C2.55213 6.86578 2.47665 6.39783 2.47665 5.86304V0.77171C2.47665 0.728581 2.48959 0.689766 2.51547 0.655263C2.54135 0.62076 2.58663 0.592726 2.65132 0.571162C2.72033 0.549598 2.80874 0.532346 2.91657 0.519408C3.02439 0.506469 3.1624 0.5 3.3306 0.5C3.49449 0.5 3.63034 0.506469 3.73816 0.519408C3.84599 0.532346 3.93224 0.549598 3.99694 0.571162C4.06163 0.592726 4.10691 0.62076 4.13279 0.655263C4.16298 0.689766 4.17808 0.728581 4.17808 0.77171V5.71424C4.17808 6.04633 4.21905 6.3353 4.30099 6.58113C4.38294 6.82265 4.49938 7.0232 4.65033 7.18277C4.8056 7.34235 4.98889 7.46311 5.20022 7.54505C5.41587 7.62268 5.65523 7.6615 5.91831 7.6615C6.18571 7.6615 6.42507 7.62053 6.6364 7.53858C6.84773 7.45664 7.02672 7.33803 7.17336 7.18277C7.31999 7.0232 7.43213 6.82912 7.50976 6.60054C7.5917 6.36764 7.63267 6.10456 7.63267 5.81128V0.77171C7.63267 0.728581 7.64561 0.689766 7.67149 0.655263C7.69737 0.62076 7.74265 0.592726 7.80735 0.571162C7.87204 0.549598 7.9583 0.532346 8.06612 0.519408C8.17825 0.506469 8.31626 0.5 8.48015 0.5C8.64404 0.5 8.77774 0.506469 8.88125 0.519408C8.98907 0.532346 9.07533 0.549598 9.14002 0.571162C9.20471 0.592726 9.25 0.62076 9.27587 0.655263C9.30175 0.689766 9.31469 0.728581 9.31469 0.77171V5.79188Z" fill="white"/>
<rect x="1.5" y="10.5264" width="8.82304" height="0.973637" fill="white"/>
</svg>
