<svg width="16" height="10" viewBox="0 0 16 10" fill="none" xmlns="http://www.w3.org/2000/svg">
<path d="M14.2578 0.333671C14.2191 0.334921 14.1807 0.338672 14.1424 0.344549H11.1405C10.8606 0.340297 10.5908 0.456087 10.3914 0.666032C10.192 0.875977 10.0797 1.16245 10.0797 1.46143C10.0797 1.76041 10.192 2.047 10.3914 2.25696C10.5908 2.46678 10.8607 2.5827 11.1405 2.57844H11.7533L8.00286 6.58361L5.60468 4.02251H5.6048C5.4086 3.81318 5.14262 3.69552 4.86527 3.69552C4.58793 3.69552 4.32194 3.81318 4.12586 4.02251L0.988386 7.37338L0.988269 7.3735C0.785527 7.58132 0.669643 7.86768 0.666739 8.16788C0.663933 8.46798 0.774309 8.75681 0.973063 8.96901C1.17183 9.18133 1.44228 9.29923 1.72334 9.29625C2.00442 9.29313 2.27253 9.16933 2.46721 8.95287L4.86539 6.39177L7.26357 8.95287C7.45977 9.16219 7.72575 9.27986 8.0031 9.27986C8.28044 9.27986 8.54631 9.1622 8.74251 8.95287L13.2323 4.158V4.81246C13.2283 5.11143 13.3368 5.39953 13.5334 5.61247C13.7299 5.82541 13.9983 5.94522 14.2782 5.94522C14.5582 5.94522 14.8266 5.82543 15.0231 5.61247C15.2197 5.39952 15.3281 5.11144 15.3242 4.81246V1.59795C15.3647 1.27333 15.2697 0.945994 15.0645 0.702649C14.8593 0.459317 14.5643 0.324539 14.2579 0.33379L14.2578 0.333671Z" fill="#87888C"/>
</svg>
