<svg width="16" height="16" viewBox="0 0 16 16" fill="none" xmlns="http://www.w3.org/2000/svg">
  <path
    d="M13.3778 0.666687H2.62225C2.10405 0.66816 1.60744 0.874657 1.24111 1.24111C0.874651 1.60744 0.668164 2.10405 0.666687 2.62225V13.3778C0.66816 13.896 0.874658 14.3926 1.24111 14.7589C1.60744 15.1254 2.10405 15.3319 2.62225 15.3334H13.3778C13.896 15.3319 14.3926 15.1254 14.7589 14.7589C15.1254 14.3926 15.3319 13.896 15.3334 13.3778V2.62225C15.3319 2.10405 15.1254 1.60744 14.7589 1.24111C14.3926 0.874651 13.896 0.668164 13.3778 0.666687ZM3.13076 3.28706H12.2438C12.4683 3.28706 12.6756 3.40688 12.7878 3.60122C12.9001 3.79557 12.9001 4.0351 12.7878 4.22942C12.6756 4.42376 12.4683 4.54359 12.2438 4.54359H3.13076C2.90634 4.54359 2.699 4.42376 2.58667 4.22942C2.47446 4.03508 2.47446 3.79555 2.58667 3.60122C2.699 3.40688 2.90636 3.28706 3.13076 3.28706ZM3.13076 5.80001H12.2438C12.4683 5.80001 12.6756 5.91971 12.7878 6.11417C12.9001 6.30852 12.9001 6.54792 12.7878 6.74237C12.6756 6.93671 12.4683 7.05641 12.2438 7.05641H3.13076C2.90634 7.05641 2.699 6.93671 2.58667 6.74237C2.47446 6.54791 2.47446 6.3085 2.58667 6.11417C2.699 5.91971 2.90636 5.80001 3.13076 5.80001ZM7.52576 12.087H3.13076C2.90634 12.087 2.699 11.9673 2.58667 11.773C2.47446 11.5786 2.47446 11.3391 2.58667 11.1448C2.699 10.9503 2.90636 10.8306 3.13076 10.8306H7.52576C7.75018 10.8306 7.95765 10.9503 8.06985 11.1448C8.18206 11.3391 8.18206 11.5786 8.06985 11.773C7.95764 11.9673 7.75016 12.087 7.52576 12.087ZM7.52576 9.56929H3.13076C2.96343 9.57027 2.80271 9.50459 2.684 9.38673C2.56541 9.26875 2.49863 9.10842 2.49863 8.94107C2.49863 8.77374 2.56541 8.6134 2.684 8.49541C2.80272 8.37755 2.96342 8.31175 3.13076 8.31286H7.52576C7.69309 8.31175 7.85391 8.37755 7.97252 8.49541C8.09124 8.61339 8.1579 8.77373 8.1579 8.94107C8.1579 9.10841 8.09124 9.26875 7.97252 9.38673C7.85393 9.50459 7.6931 9.57027 7.52576 9.56929Z"
    fill="currentColor" />
</svg>