<svg width="20" height="22" viewBox="0 0 20 22" fill="none" xmlns="http://www.w3.org/2000/svg">
<path d="M19.36 15.5458L17.2155 11.5866V7.46429C17.2155 3.34847 13.867 0 9.75119 0C5.63537 0 2.2869 3.34847 2.2869 7.46429V11.5866L0.142295 15.5457C0.0450394 15.7253 -0.00390988 15.927 0.000243983 16.1311C0.00439785 16.3353 0.0615123 16.5348 0.165991 16.7102C0.27047 16.8856 0.418728 17.0309 0.59624 17.1318C0.773752 17.2327 0.974427 17.2857 1.1786 17.2857H5.44773C5.43583 17.4163 5.42981 17.5474 5.42971 17.6786C5.42971 18.8247 5.885 19.9239 6.69543 20.7343C7.50585 21.5447 8.60503 22 9.75114 22C10.8973 22 11.9964 21.5447 12.8069 20.7343C13.6173 19.9239 14.0726 18.8247 14.0726 17.6786C14.0726 17.546 14.0662 17.4152 14.0545 17.2857H18.3237C18.5278 17.2857 18.7285 17.2326 18.906 17.1317C19.0835 17.0309 19.2317 16.8856 19.3361 16.7102C19.4406 16.5348 19.4977 16.3352 19.5019 16.1311C19.506 15.927 19.4572 15.7253 19.36 15.5458ZM12.5012 17.6786C12.5015 18.0565 12.4239 18.4304 12.2733 18.777C12.1226 19.1236 11.9022 19.4354 11.6256 19.693C11.3491 19.9506 11.0225 20.1484 10.6661 20.2742C10.3097 20.3999 9.93119 20.4508 9.55424 20.4238C9.1773 20.3967 8.80998 20.2922 8.4752 20.1169C8.14043 19.9415 7.84539 19.699 7.6085 19.4046C7.37161 19.1101 7.19796 18.77 7.09838 18.4054C6.9988 18.0409 6.97542 17.6597 7.02972 17.2857H12.4726C12.4915 17.4158 12.501 17.5471 12.5012 17.6786ZM1.83816 15.7143L3.85833 11.9848V7.46429C3.85833 5.9014 4.47918 4.40253 5.58431 3.29741C6.68944 2.19228 8.18831 1.57143 9.75119 1.57143C11.3141 1.57143 12.8129 2.19228 13.9181 3.29741C15.0232 4.40253 15.644 5.9014 15.644 7.46429V11.9848L17.6641 15.7143H1.83816Z" fill="white"/>
</svg>
