<svg width="16" height="16" viewBox="0 0 16 16" fill="none" xmlns="http://www.w3.org/2000/svg">
<path d="M12.8976 8.61365C12.7841 9.51689 12.4271 10.3427 11.8917 11.0247L13.6196 12.7526C14.5814 11.6163 15.2024 10.1851 15.3323 8.61378L12.8976 8.61388V8.61365Z" fill="#87888C"/>
<path d="M8.61428 12.8716V15.3328C10.1863 15.2028 11.6169 14.5818 12.7531 13.6201L11.0212 11.8875C10.3379 12.4136 9.51443 12.7649 8.61426 12.8716H8.61428Z" fill="#87888C"/>
<path d="M5.00472 11.8618L3.24585 13.6207C4.38207 14.5825 5.81313 15.2035 7.38518 15.3333V12.8625C6.49413 12.7452 5.67895 12.3907 5.0048 11.8618H5.00472Z" fill="#87888C"/>
<path d="M3.16329 8.61367H0.666687C0.796131 10.185 1.41703 11.6163 2.37886 12.7525L4.14213 10.9887C3.62242 10.3141 3.27424 9.50113 3.16331 8.61365L3.16329 8.61367Z" fill="#87888C"/>
<path d="M4.14263 5.0115L2.37886 3.24823C1.41703 4.38456 0.796249 5.81551 0.666687 7.38756H3.16339C3.2743 6.49937 3.6225 5.68676 4.14263 5.01147V5.0115Z" fill="#87888C"/>
<path d="M7.38518 3.13746V0.666656C5.81321 0.796714 4.3826 1.41763 3.24585 2.37943L5.00472 4.1383C5.67898 3.60915 6.49413 3.25504 7.38531 3.13746H7.38518Z" fill="#87888C"/>
<path d="M13.2449 5.97333L12.7073 5.43508L14.8581 3.2843C15.4525 2.68982 15.4525 1.72678 14.8581 1.13292C14.2642 0.539066 13.3011 0.539066 12.7073 1.13292L10.5558 3.2843L10.0182 2.74605C9.72086 2.44939 9.23902 2.44939 8.94256 2.74605C8.64527 3.04324 8.64527 3.52445 8.94256 3.82174L9.4799 4.35999L6.79113 7.04902C6.49447 7.34569 6.24457 7.92696 6.23322 8.34695L6.22369 8.69985L6.35007 9.64068L7.291 9.76767L7.64451 9.75825C8.06397 9.74678 8.64535 9.49711 8.94275 9.1996L11.6315 6.51057L12.1692 7.04822C12.4665 7.34552 12.9477 7.34552 13.245 7.04822C13.542 6.75174 13.542 6.26991 13.2451 5.97324L13.2449 5.97333ZM8.40431 8.66236C8.24425 8.82243 7.85049 8.99211 7.62395 8.99817L7.59753 8.99878L6.99219 8.39407L6.99281 8.36765C6.99946 8.14113 7.16844 7.74674 7.32901 7.58679L10.018 4.89776L11.0933 5.97345L8.40431 8.66236Z" fill="#87888C"/>
</svg>
