<svg width="16" height="16" viewBox="0 0 16 16" fill="none" xmlns="http://www.w3.org/2000/svg">
<path d="M12.4626 0.859395L5.2256 4.26855C4.80694 4.47799 4.44812 4.80673 4.26853 5.22561L0.85938 12.4626C0.500586 13.2401 0.649944 14.1372 1.24821 14.7353C1.63703 15.1241 2.14541 15.3334 2.65374 15.3334C2.95287 15.3334 3.25178 15.2735 3.52087 15.1239L10.7578 11.7148C11.1765 11.5053 11.5353 11.1766 11.7149 10.7577L15.1241 3.52072C15.4829 2.74325 15.3335 1.8461 14.7352 1.248C14.1372 0.64996 13.24 0.500596 12.4625 0.859385L12.4626 0.859395ZM9.74118 9.68133L6.33202 6.27218L12.7616 3.25184L9.74118 9.68133Z" fill="#87888C"/>
</svg>
