<svg width="136" height="56" viewBox="0 0 136 56" fill="none" xmlns="http://www.w3.org/2000/svg">
<g clip-path="url(#clip0_0_485)">
<path d="M0 24.3355V29.26C1.69536 29.2588 3.37431 29.5895 4.94079 30.2331C6.50727 30.8766 7.93052 31.8205 9.12912 33.0106C10.3274 34.2003 11.2777 35.6128 11.9257 37.1672C12.5737 38.7217 12.9067 40.3877 12.9056 42.07H17.8633C17.8588 37.3685 15.9755 32.8608 12.6265 29.536C9.27759 26.2112 4.7366 24.3409 0 24.3355H0Z" fill="#64D2FF"/>
<path d="M24.7935 15.47H16.9366C20.9113 17.9701 24.2791 21.3125 26.7985 25.2574V17.4587C26.7981 16.9311 26.5867 16.4253 26.2108 16.0524C25.8348 15.6794 25.325 15.47 24.7935 15.47V15.47Z" fill="#64D2FF"/>
<path d="M4.93657 15.47H0V19.9038C5.92089 19.9099 11.5975 22.2472 15.7843 26.4028C19.9711 30.5584 22.326 36.1929 22.3323 42.07H26.7985V37.17C25.7887 31.7845 23.1596 26.8289 19.2572 22.9554C15.3548 19.082 10.3622 16.4723 4.93657 15.47V15.47Z" fill="#66D4CF"/>
<path d="M38.9502 18.3981H35.8035V34.1411H38.9502V18.3981Z" fill="white"/>
<path d="M50.5201 25.2189C49.9963 24.7462 49.3831 24.3814 48.7162 24.1458C47.2835 23.6464 45.7222 23.6464 44.2895 24.1458C43.6222 24.3813 43.0088 24.746 42.4848 25.2189C41.9709 25.6891 41.5604 26.2596 41.2789 26.8947C40.9879 27.5874 40.8381 28.3305 40.8381 29.0811C40.8381 29.8317 40.9879 30.5748 41.2789 31.2676C41.5593 31.9044 41.97 32.4765 42.4848 32.9476C43.0079 33.4207 43.621 33.7853 44.2881 34.02C45.7206 34.5202 47.2822 34.5202 48.7148 34.02C49.382 33.7853 49.9954 33.4207 50.5187 32.9476C51.0333 32.4763 51.444 31.9043 51.7246 31.2676C52.0156 30.5748 52.1654 29.8317 52.1654 29.0811C52.1654 28.3305 52.0156 27.5874 51.7246 26.8947C51.4434 26.2598 51.0334 25.6894 50.5201 25.2189ZM48.3593 30.9351C47.8498 31.3907 47.1883 31.6428 46.5025 31.6428C45.8167 31.6428 45.1552 31.3907 44.6456 30.9351C44.2173 30.4103 43.9836 29.7554 43.9836 29.0801C43.9836 28.4047 44.2173 27.7498 44.6456 27.2251C45.1552 26.7694 45.8167 26.5173 46.5025 26.5173C47.1883 26.5173 47.8498 26.7694 48.3593 27.2251C48.7876 27.7498 49.0213 28.4047 49.0213 29.0801C49.0213 29.7554 48.7876 30.4103 48.3593 30.9351V30.9351Z" fill="white"/>
<path d="M61.8171 25.354H61.7776C61.632 25.1512 61.4631 24.966 61.274 24.8024C61.0451 24.6013 60.7916 24.4296 60.5195 24.2914C59.8317 23.9411 59.0682 23.7625 58.2952 23.7713C57.6178 23.7595 56.9479 23.9133 56.3445 24.2193C55.7823 24.5082 55.2859 24.9087 54.8861 25.396C54.4784 25.8982 54.1657 26.4695 53.963 27.0823C53.7475 27.7136 53.6376 28.3757 53.6379 29.0423C53.6299 29.7578 53.7508 30.4689 53.9947 31.1423C54.2158 31.7567 54.5603 32.3202 55.0074 32.7985C55.4529 33.2665 55.9935 33.6351 56.5935 33.88C57.2458 34.1439 57.9449 34.2748 58.6492 34.265C59.1702 34.256 59.6853 34.1538 60.1697 33.9633C60.7129 33.7587 61.1835 33.4002 61.523 32.9322H61.5653V33.9122C61.5771 34.239 61.5228 34.5649 61.4057 34.8707C61.2886 35.1764 61.111 35.4558 60.8834 35.6923C60.5945 35.9459 60.2569 36.1387 59.8908 36.259C59.5247 36.3794 59.1378 36.4247 58.7536 36.3923C58.1443 36.399 57.5405 36.2783 56.9814 36.0381C56.425 35.7913 55.906 35.469 55.439 35.0805L53.6978 37.66C54.4095 38.229 55.2414 38.6312 56.1316 38.8367C57.0123 39.0377 57.9133 39.1389 58.817 39.1384C60.803 39.1384 62.2818 38.6421 63.2536 37.6495C64.2254 36.6569 64.7115 35.2027 64.712 33.2871V24.0212H61.8206L61.8171 25.354ZM61.6281 29.9663C61.5039 30.2626 61.322 30.5316 61.0928 30.758C60.8595 30.9888 60.5859 31.1757 60.2853 31.3096C59.9733 31.4471 59.6356 31.5182 59.2941 31.5182C58.9527 31.5182 58.615 31.4471 58.3029 31.3096C58.0064 31.1738 57.7364 30.987 57.5053 30.758C57.2751 30.5297 57.0925 30.2587 56.9679 29.9603C56.8433 29.6619 56.7792 29.3421 56.7792 29.0192C56.7792 28.6962 56.8433 28.3764 56.9679 28.078C57.0925 27.7797 57.2751 27.5086 57.5053 27.2804C57.7365 27.0513 58.0065 26.8643 58.3029 26.7281C58.6151 26.591 58.9527 26.5201 59.2941 26.5201C59.6355 26.5201 59.9731 26.591 60.2853 26.7281C60.5858 26.8625 60.8593 27.0496 61.0928 27.2804C61.439 27.6257 61.6745 28.065 61.7698 28.5429C61.865 29.0209 61.8157 29.5161 61.6281 29.9663V29.9663Z" fill="white"/>
<path d="M76.5337 25.2189C76.0099 24.7462 75.3967 24.3814 74.7298 24.1458C73.2971 23.6464 71.7358 23.6464 70.3031 24.1458C69.6359 24.3813 69.0224 24.746 68.4984 25.2189C67.9845 25.6891 67.574 26.2596 67.2925 26.8947C67.0015 27.5874 66.8517 28.3305 66.8517 29.0811C66.8517 29.8317 67.0015 30.5748 67.2925 31.2676C67.5729 31.9044 67.9836 32.4765 68.4984 32.9476C69.0219 33.4209 69.6355 33.7855 70.3031 34.02C71.7356 34.5202 73.2972 34.5202 74.7298 34.02C75.3971 33.7853 76.0104 33.4207 76.5337 32.9476C77.0486 32.4765 77.4592 31.9044 77.7397 31.2676C78.0306 30.5748 78.1804 29.8317 78.1804 29.0811C78.1804 28.3305 78.0306 27.5874 77.7397 26.8947C77.4582 26.2596 77.0476 25.6891 76.5337 25.2189V25.2189ZM74.3729 30.9351C73.8634 31.3907 73.2019 31.6428 72.5161 31.6428C71.8303 31.6428 71.1688 31.3907 70.6592 30.9351C70.2309 30.4103 69.9972 29.7554 69.9972 29.0801C69.9972 28.4047 70.2309 27.7498 70.6592 27.2251C71.1688 26.7694 71.8303 26.5173 72.5161 26.5173C73.2019 26.5173 73.8634 26.7694 74.3729 27.2251C74.8012 27.7498 75.0349 28.4047 75.0349 29.0801C75.0349 29.7554 74.8012 30.4103 74.3729 30.9351Z" fill="white"/>
<path d="M82.3547 24.0912H80.6671V34.1411H82.3547V24.0912Z" fill="white"/>
<path d="M81.5112 18.9378C81.3476 18.9347 81.1851 18.9655 81.0342 19.0283C80.8832 19.0911 80.7471 19.1845 80.6346 19.3025C80.463 19.4742 80.3465 19.6925 80.2997 19.9298C80.2529 20.1672 80.2779 20.413 80.3716 20.6362C80.4654 20.8595 80.6235 21.0502 80.8263 21.1844C81.029 21.3185 81.2672 21.3901 81.5109 21.3901C81.7545 21.3901 81.9927 21.3185 82.1955 21.1844C82.3982 21.0502 82.5564 20.8595 82.6501 20.6362C82.7438 20.413 82.7688 20.1672 82.722 19.9298C82.6752 19.6925 82.5587 19.4742 82.3871 19.3025C82.2748 19.1845 82.1389 19.091 81.988 19.0282C81.8372 18.9654 81.6748 18.9346 81.5112 18.9378V18.9378Z" fill="white"/>
<path d="M94.8378 25.34C94.363 24.8589 93.792 24.4819 93.1615 24.2333C92.4695 23.9625 91.731 23.8277 90.9873 23.8364C90.2866 23.8284 89.5938 23.983 88.964 24.2879C88.3437 24.5941 87.7946 25.0254 87.3518 25.5542H87.3067V24.0912H85.6212V39.0376H87.3067V32.3596H87.3497C87.708 32.972 88.2301 33.4741 88.8582 33.81C89.5874 34.2152 90.4127 34.4192 91.2482 34.4008C91.9323 34.4051 92.6099 34.2698 93.239 34.0032C93.8465 33.7474 94.3949 33.371 94.8505 32.8972C95.3131 32.4129 95.6769 31.8443 95.9217 31.2228C96.4408 29.8668 96.4408 28.369 95.9217 27.013C95.6747 26.39 95.3064 25.8215 94.8378 25.34V25.34ZM94.2426 30.59C94.0853 31.0276 93.8392 31.4285 93.5196 31.7679C93.1999 32.1073 92.8136 32.378 92.3843 32.5633C91.4353 32.9491 90.3714 32.9491 89.4224 32.5633C88.9925 32.378 88.6056 32.1071 88.2856 31.7673C87.9656 31.4275 87.7193 31.0261 87.562 30.5879C87.2307 29.6355 87.2307 28.6003 87.562 27.6479C87.7193 27.2097 87.9656 26.8083 88.2856 26.4685C88.6056 26.1287 88.9925 25.8578 89.4224 25.6725C90.3714 25.2867 91.4353 25.2867 92.3843 25.6725C92.8142 25.8578 93.2011 26.1287 93.5211 26.4685C93.8411 26.8083 94.0874 27.2097 94.2447 27.6479C94.576 28.6003 94.576 29.6355 94.2447 30.5879L94.2426 30.59Z" fill="white"/>
<path d="M104.812 29.1199C104.491 28.8819 104.134 28.6971 103.754 28.5725C103.337 28.4328 102.91 28.3215 102.478 28.2393C102.153 28.1843 101.832 28.1128 101.515 28.0251C101.232 27.949 100.957 27.8483 100.693 27.7241C100.481 27.6287 100.289 27.4937 100.128 27.3265C99.9917 27.177 99.9182 26.981 99.9232 26.7791C99.9199 26.5613 99.9841 26.3477 100.107 26.1673C100.229 25.9892 100.387 25.839 100.572 25.727C100.77 25.6083 100.986 25.5213 101.211 25.4694C101.442 25.4128 101.678 25.3839 101.916 25.3833C102.369 25.3694 102.815 25.4851 103.203 25.7165C103.553 25.9352 103.846 26.2332 104.058 26.5859L105.464 25.6626C105.153 25.0524 104.647 24.5614 104.025 24.2661C103.398 23.9773 102.715 23.8307 102.024 23.837C101.556 23.8359 101.09 23.901 100.64 24.0302C100.208 24.1523 99.7992 24.3413 99.4274 24.5902C99.0718 24.8285 98.7759 25.1443 98.5621 25.5136C98.3408 25.9067 98.2288 26.3513 98.2377 26.8015C98.2201 27.2423 98.3208 27.6798 98.5297 28.0692C98.7202 28.3949 98.9861 28.6709 99.3054 28.8742C99.6579 29.0949 100.04 29.2649 100.441 29.379C100.874 29.5078 101.328 29.6223 101.804 29.7226C102.079 29.78 102.345 29.8444 102.604 29.9158C102.848 29.9806 103.081 30.0781 103.297 30.2057C103.488 30.318 103.653 30.4678 103.784 30.6459C103.914 30.8433 103.978 31.0761 103.968 31.3116C103.975 31.5591 103.908 31.8032 103.773 32.0116C103.639 32.2093 103.461 32.3743 103.254 32.4947C103.03 32.6274 102.785 32.722 102.529 32.7746C102.27 32.8312 102.005 32.8601 101.739 32.8607C101.213 32.8809 100.692 32.7543 100.236 32.4954C99.8153 32.2299 99.4455 31.8929 99.1432 31.4999L97.8033 32.531C98.2181 33.1704 98.8069 33.6801 99.5015 34.0011C100.213 34.2815 100.975 34.4167 101.741 34.3986C102.239 34.3991 102.736 34.3415 103.222 34.2271C103.683 34.1212 104.123 33.936 104.52 33.6797C104.899 33.4297 105.213 33.0938 105.437 32.6998C105.679 32.2525 105.798 31.7499 105.784 31.2423C105.797 30.806 105.708 30.3724 105.524 29.9761C105.356 29.64 105.113 29.347 104.812 29.1199V29.1199Z" fill="white"/>
<path d="M116.97 31.7576V24.0912H115.282V28.9912C115.288 29.5195 115.226 30.0463 115.098 30.5592C114.99 30.9989 114.799 31.4141 114.534 31.7828C114.283 32.1255 113.948 32.399 113.56 32.5773C113.115 32.7737 112.631 32.8693 112.143 32.8573C111.814 32.8837 111.482 32.8312 111.177 32.7042C110.872 32.5771 110.603 32.3793 110.391 32.1272C109.985 31.5417 109.787 30.8394 109.827 30.1301V24.0912H108.139V30.2974C108.134 30.86 108.21 31.4204 108.366 31.9613C108.502 32.4409 108.743 32.8847 109.071 33.2612C109.4 33.6292 109.811 33.9167 110.27 34.1012C110.818 34.3134 111.403 34.4157 111.99 34.4022C112.386 34.4054 112.779 34.3509 113.159 34.2405C113.501 34.1415 113.829 33.9972 114.132 33.8114C114.408 33.6426 114.659 33.4367 114.878 33.1996C115.075 32.9886 115.239 32.7496 115.365 32.4905H115.408C115.408 32.7775 115.416 33.0575 115.43 33.3305C115.445 33.6035 115.452 33.8756 115.452 34.1467H117.053C117.053 33.8168 117.039 33.4516 117.009 33.0512C116.98 32.6508 116.967 32.2196 116.97 31.7576Z" fill="white"/>
<path d="M135.208 26.2927C135.096 25.8064 134.874 25.3517 134.559 24.9627C134.241 24.5863 133.832 24.2971 133.369 24.1227C132.787 23.9141 132.17 23.8158 131.552 23.8329C130.88 23.8038 130.215 23.9799 129.648 24.3376C129.122 24.7123 128.68 25.1914 128.35 25.7446C128.264 25.5724 128.152 25.3754 128.014 25.1538C127.861 24.9144 127.667 24.7036 127.441 24.5308C127.163 24.321 126.854 24.1557 126.524 24.0408C126.082 23.8931 125.616 23.8239 125.15 23.8364C124.755 23.8331 124.361 23.8876 123.982 23.9981C123.639 24.0971 123.312 24.2414 123.008 24.4272C122.732 24.5961 122.481 24.802 122.262 25.039C122.065 25.25 121.901 25.489 121.775 25.7481H121.732C121.732 25.4611 121.724 25.1825 121.71 24.9081C121.696 24.6337 121.688 24.3642 121.688 24.0919H120.088C120.088 24.4218 120.102 24.787 120.131 25.1874C120.159 25.5878 120.174 26.0173 120.174 26.4761V34.1418H121.863V29.246C121.857 28.7175 121.919 28.1904 122.047 27.6773C122.154 27.2374 122.346 26.8221 122.611 26.4537C122.862 26.1108 123.197 25.8373 123.584 25.6592C124.03 25.4626 124.514 25.367 125.002 25.3792C125.29 25.3547 125.581 25.4066 125.843 25.5295C126.105 25.6525 126.33 25.8421 126.494 26.0792C126.856 26.8157 127.013 27.6351 126.949 28.4522V34.1432H128.633V28.343C128.628 27.9297 128.698 27.5188 128.839 27.1299C128.964 26.7851 129.155 26.4679 129.403 26.1961C129.637 25.9416 129.92 25.737 130.236 25.5948C130.555 25.4513 130.902 25.3779 131.253 25.3799C131.67 25.3649 132.084 25.4456 132.464 25.6158C132.764 25.7595 133.024 25.9736 133.221 26.2395C133.411 26.5027 133.544 26.8024 133.611 27.1194C133.683 27.4511 133.719 27.7895 133.719 28.1288V34.1418H135.403V28.0427C135.409 27.4537 135.344 26.8661 135.208 26.2927Z" fill="white"/>
</g>
<defs>
<clipPath id="clip0_0_485">
<rect width="135.403" height="56" fill="white"/>
</clipPath>
</defs>
</svg>
